<mxfile host="65bd71144e">
    <diagram id="fM3ZLSrCNkdh29uTLf-Y" name="Page-1">
        <mxGraphModel dx="723" dy="473" grid="1" gridSize="10" guides="1" tooltips="1" connect="1" arrows="1" fold="1" page="1" pageScale="1" pageWidth="850" pageHeight="1100" math="0" shadow="0">
            <root>
                <mxCell id="0"/>
                <mxCell id="1" parent="0"/>
                <mxCell id="2" value="&lt;h1&gt;Grid Template Areas&lt;/h1&gt;" style="text;html=1;strokeColor=none;fillColor=none;spacing=5;spacingTop=-20;whiteSpace=wrap;overflow=hidden;rounded=0;sketch=1;hachureGap=4;jiggle=2;curveFitting=1;fontFamily=Architects Daughter;fontSource=https%3A%2F%2Ffonts.googleapis.com%2Fcss%3Ffamily%3DArchitects%2BDaughter;fontSize=20;" vertex="1" parent="1">
                    <mxGeometry x="225" y="50" width="400" height="90" as="geometry"/>
                </mxCell>
                <mxCell id="6" value="" style="shape=table;html=1;whiteSpace=wrap;startSize=0;container=1;collapsible=0;childLayout=tableLayout;sketch=1;hachureGap=4;jiggle=2;curveFitting=1;fontFamily=Architects Daughter;fontSource=https%3A%2F%2Ffonts.googleapis.com%2Fcss%3Ffamily%3DArchitects%2BDaughter;fontSize=20;" vertex="1" parent="1">
                    <mxGeometry x="156" y="170" width="375" height="224" as="geometry"/>
                </mxCell>
                <mxCell id="7" value="" style="shape=tableRow;horizontal=0;startSize=0;swimlaneHead=0;swimlaneBody=0;top=0;left=0;bottom=0;right=0;collapsible=0;dropTarget=0;fillColor=none;points=[[0,0.5],[1,0.5]];portConstraint=eastwest;sketch=1;hachureGap=4;jiggle=2;curveFitting=1;fontFamily=Architects Daughter;fontSource=https%3A%2F%2Ffonts.googleapis.com%2Fcss%3Ffamily%3DArchitects%2BDaughter;fontSize=20;" vertex="1" parent="6">
                    <mxGeometry width="375" height="70" as="geometry"/>
                </mxCell>
                <mxCell id="8" value="" style="shape=partialRectangle;html=1;whiteSpace=wrap;connectable=0;fillColor=#fb60b3;top=0;left=0;bottom=0;right=0;overflow=hidden;sketch=1;hachureGap=4;jiggle=2;curveFitting=1;fontFamily=Architects Daughter;fontSource=https%3A%2F%2Ffonts.googleapis.com%2Fcss%3Ffamily%3DArchitects%2BDaughter;fontSize=20;fontColor=#ffffff;strokeColor=#A50040;" vertex="1" parent="7">
                    <mxGeometry width="176" height="70" as="geometry">
                        <mxRectangle width="176" height="70" as="alternateBounds"/>
                    </mxGeometry>
                </mxCell>
                <mxCell id="9" value="" style="shape=partialRectangle;html=1;whiteSpace=wrap;connectable=0;fillColor=#fb60b3;top=0;left=0;bottom=0;right=0;overflow=hidden;sketch=1;hachureGap=4;jiggle=2;curveFitting=1;fontFamily=Architects Daughter;fontSource=https%3A%2F%2Ffonts.googleapis.com%2Fcss%3Ffamily%3DArchitects%2BDaughter;fontSize=20;fontColor=#ffffff;strokeColor=#A50040;" vertex="1" parent="7">
                    <mxGeometry x="176" width="101" height="70" as="geometry">
                        <mxRectangle width="101" height="70" as="alternateBounds"/>
                    </mxGeometry>
                </mxCell>
                <mxCell id="10" value="" style="shape=partialRectangle;html=1;whiteSpace=wrap;connectable=0;fillColor=#fb60b3;top=0;left=0;bottom=0;right=0;overflow=hidden;sketch=1;hachureGap=4;jiggle=2;curveFitting=1;fontFamily=Architects Daughter;fontSource=https%3A%2F%2Ffonts.googleapis.com%2Fcss%3Ffamily%3DArchitects%2BDaughter;fontSize=20;fontColor=#ffffff;strokeColor=#A50040;" vertex="1" parent="7">
                    <mxGeometry x="277" width="102" height="70" as="geometry">
                        <mxRectangle width="102" height="70" as="alternateBounds"/>
                    </mxGeometry>
                </mxCell>
                <mxCell id="11" value="" style="shape=tableRow;horizontal=0;startSize=0;swimlaneHead=0;swimlaneBody=0;top=0;left=0;bottom=0;right=0;collapsible=0;dropTarget=0;fillColor=none;points=[[0,0.5],[1,0.5]];portConstraint=eastwest;sketch=1;hachureGap=4;jiggle=2;curveFitting=1;fontFamily=Architects Daughter;fontSource=https%3A%2F%2Ffonts.googleapis.com%2Fcss%3Ffamily%3DArchitects%2BDaughter;fontSize=20;" vertex="1" parent="6">
                    <mxGeometry y="70" width="375" height="78" as="geometry"/>
                </mxCell>
                <mxCell id="12" value="" style="shape=partialRectangle;html=1;whiteSpace=wrap;connectable=0;fillColor=#647687;top=0;left=0;bottom=0;right=0;overflow=hidden;sketch=1;hachureGap=4;jiggle=2;curveFitting=1;fontFamily=Architects Daughter;fontSource=https%3A%2F%2Ffonts.googleapis.com%2Fcss%3Ffamily%3DArchitects%2BDaughter;fontSize=20;fontColor=#ffffff;strokeColor=#314354;" vertex="1" parent="11">
                    <mxGeometry width="176" height="78" as="geometry">
                        <mxRectangle width="176" height="78" as="alternateBounds"/>
                    </mxGeometry>
                </mxCell>
                <mxCell id="13" value="Empty" style="shape=partialRectangle;html=1;whiteSpace=wrap;connectable=0;fillColor=#60a917;top=0;left=0;bottom=0;right=0;overflow=hidden;sketch=1;hachureGap=4;jiggle=2;curveFitting=1;fontFamily=Architects Daughter;fontSource=https%3A%2F%2Ffonts.googleapis.com%2Fcss%3Ffamily%3DArchitects%2BDaughter;fontSize=20;strokeColor=#2D7600;fontColor=#ffffff;" vertex="1" parent="11">
                    <mxGeometry x="176" width="101" height="78" as="geometry">
                        <mxRectangle width="101" height="78" as="alternateBounds"/>
                    </mxGeometry>
                </mxCell>
                <mxCell id="14" value="Slidebar" style="shape=partialRectangle;html=1;whiteSpace=wrap;connectable=0;fillColor=#ffff88;top=0;left=0;bottom=0;right=0;overflow=hidden;sketch=1;hachureGap=4;jiggle=2;curveFitting=1;fontFamily=Architects Daughter;fontSource=https%3A%2F%2Ffonts.googleapis.com%2Fcss%3Ffamily%3DArchitects%2BDaughter;fontSize=20;strokeColor=#36393d;" vertex="1" parent="11">
                    <mxGeometry x="277" width="102" height="78" as="geometry">
                        <mxRectangle width="102" height="78" as="alternateBounds"/>
                    </mxGeometry>
                </mxCell>
                <mxCell id="15" value="" style="shape=tableRow;horizontal=0;startSize=0;swimlaneHead=0;swimlaneBody=0;top=0;left=0;bottom=0;right=0;collapsible=0;dropTarget=0;fillColor=none;points=[[0,0.5],[1,0.5]];portConstraint=eastwest;sketch=1;hachureGap=4;jiggle=2;curveFitting=1;fontFamily=Architects Daughter;fontSource=https%3A%2F%2Ffonts.googleapis.com%2Fcss%3Ffamily%3DArchitects%2BDaughter;fontSize=20;" vertex="1" parent="6">
                    <mxGeometry y="148" width="375" height="76" as="geometry"/>
                </mxCell>
                <mxCell id="16" value="" style="shape=partialRectangle;html=1;whiteSpace=wrap;connectable=0;fillColor=#f0a30a;top=0;left=0;bottom=0;right=0;overflow=hidden;sketch=1;hachureGap=4;jiggle=2;curveFitting=1;fontFamily=Architects Daughter;fontSource=https%3A%2F%2Ffonts.googleapis.com%2Fcss%3Ffamily%3DArchitects%2BDaughter;fontSize=20;fontColor=#000000;strokeColor=#BD7000;" vertex="1" parent="15">
                    <mxGeometry width="176" height="76" as="geometry">
                        <mxRectangle width="176" height="76" as="alternateBounds"/>
                    </mxGeometry>
                </mxCell>
                <mxCell id="17" value="" style="shape=partialRectangle;html=1;whiteSpace=wrap;connectable=0;fillColor=#f0a30a;top=0;left=0;bottom=0;right=0;overflow=hidden;sketch=1;hachureGap=4;jiggle=2;curveFitting=1;fontFamily=Architects Daughter;fontSource=https%3A%2F%2Ffonts.googleapis.com%2Fcss%3Ffamily%3DArchitects%2BDaughter;fontSize=20;fontColor=#000000;strokeColor=#BD7000;" vertex="1" parent="15">
                    <mxGeometry x="176" width="101" height="76" as="geometry">
                        <mxRectangle width="101" height="76" as="alternateBounds"/>
                    </mxGeometry>
                </mxCell>
                <mxCell id="18" value="" style="shape=partialRectangle;html=1;whiteSpace=wrap;connectable=0;fillColor=#f0a30a;top=0;left=0;bottom=0;right=0;overflow=hidden;pointerEvents=1;sketch=1;hachureGap=4;jiggle=2;curveFitting=1;fontFamily=Architects Daughter;fontSource=https%3A%2F%2Ffonts.googleapis.com%2Fcss%3Ffamily%3DArchitects%2BDaughter;fontSize=20;fontColor=#000000;strokeColor=#BD7000;" vertex="1" parent="15">
                    <mxGeometry x="277" width="102" height="76" as="geometry">
                        <mxRectangle width="102" height="76" as="alternateBounds"/>
                    </mxGeometry>
                </mxCell>
                <mxCell id="20" value="" style="endArrow=classic;html=1;sketch=1;hachureGap=4;jiggle=2;curveFitting=1;fontFamily=Architects Daughter;fontSource=https%3A%2F%2Ffonts.googleapis.com%2Fcss%3Ffamily%3DArchitects%2BDaughter;fontSize=16;exitX=1;exitY=0.5;exitDx=0;exitDy=0;entryX=0;entryY=0.5;entryDx=0;entryDy=0;" edge="1" parent="1" source="7" target="21">
                    <mxGeometry width="50" height="50" relative="1" as="geometry">
                        <mxPoint x="300" y="320" as="sourcePoint"/>
                        <mxPoint x="580" y="200" as="targetPoint"/>
                    </mxGeometry>
                </mxCell>
                <mxCell id="21" value="Navigation Bar" style="text;html=1;strokeColor=none;fillColor=#fd58a3;align=center;verticalAlign=middle;whiteSpace=wrap;rounded=0;sketch=1;hachureGap=4;jiggle=2;curveFitting=1;fontFamily=Architects Daughter;fontSource=https%3A%2F%2Ffonts.googleapis.com%2Fcss%3Ffamily%3DArchitects%2BDaughter;fontSize=20;" vertex="1" parent="1">
                    <mxGeometry x="650" y="170" width="160" height="30" as="geometry"/>
                </mxCell>
                <mxCell id="22" value="Footer" style="text;html=1;strokeColor=#BD7000;fillColor=#f0a30a;align=center;verticalAlign=middle;whiteSpace=wrap;rounded=0;sketch=1;hachureGap=4;jiggle=2;curveFitting=1;fontFamily=Architects Daughter;fontSource=https%3A%2F%2Ffonts.googleapis.com%2Fcss%3Ffamily%3DArchitects%2BDaughter;fontSize=20;fontColor=#FFFFFF;" vertex="1" parent="1">
                    <mxGeometry x="650" y="390" width="85" height="30" as="geometry"/>
                </mxCell>
                <mxCell id="23" value="" style="endArrow=classic;html=1;sketch=1;hachureGap=4;jiggle=2;curveFitting=1;fontFamily=Architects Daughter;fontSource=https%3A%2F%2Ffonts.googleapis.com%2Fcss%3Ffamily%3DArchitects%2BDaughter;fontSize=16;fontColor=#FFFFFF;exitX=1;exitY=0.5;exitDx=0;exitDy=0;entryX=0;entryY=0.5;entryDx=0;entryDy=0;" edge="1" parent="1" source="15" target="22">
                    <mxGeometry width="50" height="50" relative="1" as="geometry">
                        <mxPoint x="380" y="310" as="sourcePoint"/>
                        <mxPoint x="430" y="260" as="targetPoint"/>
                    </mxGeometry>
                </mxCell>
                <mxCell id="61" value="Main Content" style="text;html=1;strokeColor=#314354;fillColor=#647687;align=center;verticalAlign=middle;whiteSpace=wrap;rounded=0;sketch=1;hachureGap=4;jiggle=2;curveFitting=1;fontFamily=Architects Daughter;fontSource=https%3A%2F%2Ffonts.googleapis.com%2Fcss%3Ffamily%3DArchitects%2BDaughter;fontSize=20;fontColor=#ffffff;" vertex="1" parent="1">
                    <mxGeometry x="90" y="456" width="126" height="30" as="geometry"/>
                </mxCell>
                <mxCell id="62" value="" style="endArrow=classic;html=1;sketch=1;hachureGap=4;jiggle=2;curveFitting=1;fontFamily=Architects Daughter;fontSource=https%3A%2F%2Ffonts.googleapis.com%2Fcss%3Ffamily%3DArchitects%2BDaughter;fontSize=16;fontColor=#FFFFFF;exitX=0;exitY=0.5;exitDx=0;exitDy=0;entryX=0;entryY=0.5;entryDx=0;entryDy=0;" edge="1" parent="1" source="11" target="61">
                    <mxGeometry width="50" height="50" relative="1" as="geometry">
                        <mxPoint x="270" y="410" as="sourcePoint"/>
                        <mxPoint x="320" y="360" as="targetPoint"/>
                        <Array as="points">
                            <mxPoint x="120" y="280"/>
                            <mxPoint x="90" y="290"/>
                            <mxPoint x="50" y="340"/>
                            <mxPoint x="40" y="370"/>
                            <mxPoint x="30" y="400"/>
                            <mxPoint x="30" y="430"/>
                            <mxPoint x="40" y="450"/>
                            <mxPoint x="60" y="468"/>
                        </Array>
                    </mxGeometry>
                </mxCell>
            </root>
        </mxGraphModel>
    </diagram>
</mxfile>